<?xml version="1.0" standalone="no"?><!DOCTYPE svg PUBLIC "-//W3C//DTD SVG 1.1//EN" "http://www.w3.org/Graphics/SVG/1.1/DTD/svg11.dtd"><svg t="1545710618521" class="icon" style="" viewBox="0 0 1024 1024" version="1.1" xmlns="http://www.w3.org/2000/svg" p-id="1374" data-spm-anchor-id="a313x.7781069.0.i0" xmlns:xlink="http://www.w3.org/1999/xlink" width="200" height="200"><defs><style type="text/css"></style></defs><path d="M480.695 960h63.725V836.709l68.854 68.242 44.945-44.546-113.798-112.79v-180.02l177.271 102.44 41.67 155.652 60.725-16.284-25.398-94.872 85.259 49.266 31.87-55.246-84.726-48.961 94.497-25.343-16.495-61.622-156.068 41.855-176.934-102.245 177.667-102.667 155.513 41.709 16.274-60.793-94.78-25.418 85.255-49.264-31.869-55.247-84.733 48.965 25.326-94.594-61.557-16.51-41.817 156.206-176.948 102.251V251.539l113.849-113.951-44.459-44.496-69.392 69.454V64h-63.725v97.935l-69.188-69.249-45.068 45.107 114.256 114.355V457.11l-156.557-90.469L283.45 211.61l-60.188 16.458 24.84 94.632-107.544-62.145-31.868 55.247 106.667 61.639-93.463 25.557 16.074 61.237 154.482-42.243 156.169 90.243-156.138 90.226-154.485-42.243-15.855 60.409 94.289 25.784-107.534 62.14 31.868 55.247 106.672-61.642-24.621 93.801 61.012 16.685 40.69-155.028 156.179-90.25v180.455l-113.801 112.79 44.338 43.944 69.463-68.845V960z" fill="#FFFFFF" p-id="1375"></path></svg>